<svg width="362" height="58" viewBox="0 0 362 58" fill="none" xmlns="http://www.w3.org/2000/svg">
<g filter="url(#filter0_d_13_98)">
<rect x="4" width="354" height="50" rx="20" fill="#BC351C"/>
<path d="M130.775 19.364V21.83H125.627V24.494H129.479V26.888H125.627V32H122.549V19.364H130.775ZM131.481 26.96C131.481 25.928 131.673 25.022 132.057 24.242C132.453 23.462 132.987 22.862 133.659 22.442C134.331 22.022 135.081 21.812 135.909 21.812C136.617 21.812 137.235 21.956 137.763 22.244C138.303 22.532 138.717 22.91 139.005 23.378V21.956H142.083V32H139.005V30.578C138.705 31.046 138.285 31.424 137.745 31.712C137.217 32 136.599 32.144 135.891 32.144C135.075 32.144 134.331 31.934 133.659 31.514C132.987 31.082 132.453 30.476 132.057 29.696C131.673 28.904 131.481 27.992 131.481 26.96ZM139.005 26.978C139.005 26.21 138.789 25.604 138.357 25.16C137.937 24.716 137.421 24.494 136.809 24.494C136.197 24.494 135.675 24.716 135.243 25.16C134.823 25.592 134.613 26.192 134.613 26.96C134.613 27.728 134.823 28.34 135.243 28.796C135.675 29.24 136.197 29.462 136.809 29.462C137.421 29.462 137.937 29.24 138.357 28.796C138.789 28.352 139.005 27.746 139.005 26.978ZM147.088 18.68V32H144.01V18.68H147.088ZM158.486 26.816C158.486 27.104 158.468 27.404 158.432 27.716H151.466C151.514 28.34 151.712 28.82 152.06 29.156C152.42 29.48 152.858 29.642 153.374 29.642C154.142 29.642 154.676 29.318 154.976 28.67H158.252C158.084 29.33 157.778 29.924 157.334 30.452C156.902 30.98 156.356 31.394 155.696 31.694C155.036 31.994 154.298 32.144 153.482 32.144C152.498 32.144 151.622 31.934 150.854 31.514C150.086 31.094 149.486 30.494 149.054 29.714C148.622 28.934 148.406 28.022 148.406 26.978C148.406 25.934 148.616 25.022 149.036 24.242C149.468 23.462 150.068 22.862 150.836 22.442C151.604 22.022 152.486 21.812 153.482 21.812C154.454 21.812 155.318 22.016 156.074 22.424C156.83 22.832 157.418 23.414 157.838 24.17C158.27 24.926 158.486 25.808 158.486 26.816ZM155.336 26.006C155.336 25.478 155.156 25.058 154.796 24.746C154.436 24.434 153.986 24.278 153.446 24.278C152.93 24.278 152.492 24.428 152.132 24.728C151.784 25.028 151.568 25.454 151.484 26.006H155.336ZM162.803 25.664C162.803 24.416 163.073 23.306 163.613 22.334C164.153 21.35 164.903 20.588 165.863 20.048C166.835 19.496 167.933 19.22 169.157 19.22C170.657 19.22 171.941 19.616 173.009 20.408C174.077 21.2 174.791 22.28 175.151 23.648H171.767C171.515 23.12 171.155 22.718 170.687 22.442C170.231 22.166 169.709 22.028 169.121 22.028C168.173 22.028 167.405 22.358 166.817 23.018C166.229 23.678 165.935 24.56 165.935 25.664C165.935 26.768 166.229 27.65 166.817 28.31C167.405 28.97 168.173 29.3 169.121 29.3C169.709 29.3 170.231 29.162 170.687 28.886C171.155 28.61 171.515 28.208 171.767 27.68H175.151C174.791 29.048 174.077 30.128 173.009 30.92C171.941 31.7 170.657 32.09 169.157 32.09C167.933 32.09 166.835 31.82 165.863 31.28C164.903 30.728 164.153 29.966 163.613 28.994C163.073 28.022 162.803 26.912 162.803 25.664ZM181.308 32.144C180.324 32.144 179.436 31.934 178.644 31.514C177.864 31.094 177.246 30.494 176.79 29.714C176.346 28.934 176.124 28.022 176.124 26.978C176.124 25.946 176.352 25.04 176.808 24.26C177.264 23.468 177.888 22.862 178.68 22.442C179.472 22.022 180.36 21.812 181.344 21.812C182.328 21.812 183.216 22.022 184.008 22.442C184.8 22.862 185.424 23.468 185.88 24.26C186.336 25.04 186.564 25.946 186.564 26.978C186.564 28.01 186.33 28.922 185.862 29.714C185.406 30.494 184.776 31.094 183.972 31.514C183.18 31.934 182.292 32.144 181.308 32.144ZM181.308 29.48C181.896 29.48 182.394 29.264 182.802 28.832C183.222 28.4 183.432 27.782 183.432 26.978C183.432 26.174 183.228 25.556 182.82 25.124C182.424 24.692 181.932 24.476 181.344 24.476C180.744 24.476 180.246 24.692 179.85 25.124C179.454 25.544 179.256 26.162 179.256 26.978C179.256 27.782 179.448 28.4 179.832 28.832C180.228 29.264 180.72 29.48 181.308 29.48ZM194.016 21.848C195.192 21.848 196.128 22.232 196.824 23C197.532 23.756 197.886 24.8 197.886 26.132V32H194.826V26.546C194.826 25.874 194.652 25.352 194.304 24.98C193.956 24.608 193.488 24.422 192.9 24.422C192.312 24.422 191.844 24.608 191.496 24.98C191.148 25.352 190.974 25.874 190.974 26.546V32H187.896V21.956H190.974V23.288C191.286 22.844 191.706 22.496 192.234 22.244C192.762 21.98 193.356 21.848 194.016 21.848ZM204.297 32.144C203.313 32.144 202.425 31.934 201.633 31.514C200.853 31.094 200.235 30.494 199.779 29.714C199.335 28.934 199.113 28.022 199.113 26.978C199.113 25.946 199.341 25.04 199.797 24.26C200.253 23.468 200.877 22.862 201.669 22.442C202.461 22.022 203.349 21.812 204.333 21.812C205.317 21.812 206.205 22.022 206.997 22.442C207.789 22.862 208.413 23.468 208.869 24.26C209.325 25.04 209.553 25.946 209.553 26.978C209.553 28.01 209.319 28.922 208.851 29.714C208.395 30.494 207.765 31.094 206.961 31.514C206.169 31.934 205.281 32.144 204.297 32.144ZM204.297 29.48C204.885 29.48 205.383 29.264 205.791 28.832C206.211 28.4 206.421 27.782 206.421 26.978C206.421 26.174 206.217 25.556 205.809 25.124C205.413 24.692 204.921 24.476 204.333 24.476C203.733 24.476 203.235 24.692 202.839 25.124C202.443 25.544 202.245 26.162 202.245 26.978C202.245 27.782 202.437 28.4 202.821 28.832C203.217 29.264 203.709 29.48 204.297 29.48ZM214.972 32.144C214.096 32.144 213.316 31.994 212.632 31.694C211.948 31.394 211.408 30.986 211.012 30.47C210.616 29.942 210.394 29.354 210.346 28.706H213.388C213.424 29.054 213.586 29.336 213.874 29.552C214.162 29.768 214.516 29.876 214.936 29.876C215.32 29.876 215.614 29.804 215.818 29.66C216.034 29.504 216.142 29.306 216.142 29.066C216.142 28.778 215.992 28.568 215.692 28.436C215.392 28.292 214.906 28.136 214.234 27.968C213.514 27.8 212.914 27.626 212.434 27.446C211.954 27.254 211.54 26.96 211.192 26.564C210.844 26.156 210.67 25.61 210.67 24.926C210.67 24.35 210.826 23.828 211.138 23.36C211.462 22.88 211.93 22.502 212.542 22.226C213.166 21.95 213.904 21.812 214.756 21.812C216.016 21.812 217.006 22.124 217.726 22.748C218.458 23.372 218.878 24.2 218.986 25.232H216.142C216.094 24.884 215.938 24.608 215.674 24.404C215.422 24.2 215.086 24.098 214.666 24.098C214.306 24.098 214.03 24.17 213.838 24.314C213.646 24.446 213.55 24.632 213.55 24.872C213.55 25.16 213.7 25.376 214 25.52C214.312 25.664 214.792 25.808 215.44 25.952C216.184 26.144 216.79 26.336 217.258 26.528C217.726 26.708 218.134 27.008 218.482 27.428C218.842 27.836 219.028 28.388 219.04 29.084C219.04 29.672 218.872 30.2 218.536 30.668C218.212 31.124 217.738 31.484 217.114 31.748C216.502 32.012 215.788 32.144 214.972 32.144ZM220.011 26.978C220.011 25.934 220.221 25.022 220.641 24.242C221.073 23.462 221.667 22.862 222.423 22.442C223.191 22.022 224.067 21.812 225.051 21.812C226.311 21.812 227.361 22.142 228.201 22.802C229.053 23.462 229.611 24.392 229.875 25.592H226.599C226.323 24.824 225.789 24.44 224.997 24.44C224.433 24.44 223.983 24.662 223.647 25.106C223.311 25.538 223.143 26.162 223.143 26.978C223.143 27.794 223.311 28.424 223.647 28.868C223.983 29.3 224.433 29.516 224.997 29.516C225.789 29.516 226.323 29.132 226.599 28.364H229.875C229.611 29.54 229.053 30.464 228.201 31.136C227.349 31.808 226.299 32.144 225.051 32.144C224.067 32.144 223.191 31.934 222.423 31.514C221.667 31.094 221.073 30.494 220.641 29.714C220.221 28.934 220.011 28.022 220.011 26.978ZM235.794 32.144C234.81 32.144 233.922 31.934 233.13 31.514C232.35 31.094 231.732 30.494 231.276 29.714C230.832 28.934 230.61 28.022 230.61 26.978C230.61 25.946 230.838 25.04 231.294 24.26C231.75 23.468 232.374 22.862 233.166 22.442C233.958 22.022 234.846 21.812 235.83 21.812C236.814 21.812 237.702 22.022 238.494 22.442C239.286 22.862 239.91 23.468 240.366 24.26C240.822 25.04 241.05 25.946 241.05 26.978C241.05 28.01 240.816 28.922 240.348 29.714C239.892 30.494 239.262 31.094 238.458 31.514C237.666 31.934 236.778 32.144 235.794 32.144ZM235.794 29.48C236.382 29.48 236.88 29.264 237.288 28.832C237.708 28.4 237.918 27.782 237.918 26.978C237.918 26.174 237.714 25.556 237.306 25.124C236.91 24.692 236.418 24.476 235.83 24.476C235.23 24.476 234.732 24.692 234.336 25.124C233.94 25.544 233.742 26.162 233.742 26.978C233.742 27.782 233.934 28.4 234.318 28.832C234.714 29.264 235.206 29.48 235.794 29.48Z" fill="white"/>
</g>
<defs>
<filter id="filter0_d_13_98" x="0" y="0" width="362" height="58" filterUnits="userSpaceOnUse" color-interpolation-filters="sRGB">
<feFlood flood-opacity="0" result="BackgroundImageFix"/>
<feColorMatrix in="SourceAlpha" type="matrix" values="0 0 0 0 0 0 0 0 0 0 0 0 0 0 0 0 0 0 127 0" result="hardAlpha"/>
<feOffset dy="4"/>
<feGaussianBlur stdDeviation="2"/>
<feComposite in2="hardAlpha" operator="out"/>
<feColorMatrix type="matrix" values="0 0 0 0 0 0 0 0 0 0 0 0 0 0 0 0 0 0 0.25 0"/>
<feBlend mode="normal" in2="BackgroundImageFix" result="effect1_dropShadow_13_98"/>
<feBlend mode="normal" in="SourceGraphic" in2="effect1_dropShadow_13_98" result="shape"/>
</filter>
</defs>
</svg>
