<svg width="44" height="43" viewBox="0 0 44 43" fill="none" xmlns="http://www.w3.org/2000/svg">
<g filter="url(#filter0_d_13_199)">
<rect x="4" width="36" height="35" rx="5" fill="#BC351C"/>
</g>
<path d="M39 18.0401C39 9.18596 31.832 2 23 2C14.168 2 7 9.18596 7 18.0401C7 25.8035 12.504 32.2677 19.8 33.7594V22.8521H16.6V18.0401H19.8V14.0301C19.8 10.9343 22.312 8.41604 25.4 8.41604H29.4V13.2281H26.2C25.32 13.2281 24.6 13.9499 24.6 14.8321V18.0401H29.4V22.8521H24.6V34C32.68 33.198 39 26.3649 39 18.0401Z" fill="black"/>
<defs>
<filter id="filter0_d_13_199" x="0" y="0" width="44" height="43" filterUnits="userSpaceOnUse" color-interpolation-filters="sRGB">
<feFlood flood-opacity="0" result="BackgroundImageFix"/>
<feColorMatrix in="SourceAlpha" type="matrix" values="0 0 0 0 0 0 0 0 0 0 0 0 0 0 0 0 0 0 127 0" result="hardAlpha"/>
<feOffset dy="4"/>
<feGaussianBlur stdDeviation="2"/>
<feComposite in2="hardAlpha" operator="out"/>
<feColorMatrix type="matrix" values="0 0 0 0 0 0 0 0 0 0 0 0 0 0 0 0 0 0 0.25 0"/>
<feBlend mode="normal" in2="BackgroundImageFix" result="effect1_dropShadow_13_199"/>
<feBlend mode="normal" in="SourceGraphic" in2="effect1_dropShadow_13_199" result="shape"/>
</filter>
</defs>
</svg>
